# xmcd
#
# Track frame offsets:
# 150
# 17503
# 35027
# 52415
# 66191
# 83370
# 101050
# 120386
# 139461
# 155415
#
# Disc length: 2311 seconds
#
#
# Revision: 0
# Processed by: cddbd v1.5.1PL2 Copyright (c) Steve Scherf et al.
# Submitted via: FreeRIP 2.944 
#
DISCID=8509050a
DTITLE=Travis Tritt - No More Looking Over My Shoulder
DYEAR=1998
DGENRE=Country
TTITLE0=No More Lookij\\ng Over My Shoulder
TTITLE1=Rough Around The Edges
TTITLE2=If I Lost You
TTITLE3=Girls Like That
TTITLE4=For You
TTITLE5=I'm All The Man
TTITLE6=Thougher Than The Rest
TTITLE7=Start The Car
TTITLE8=Mission Of Love
TTITLE9=The Road To You
EXTD=
EXTT0=
EXTT1=
EXTT2=
EXTT3=
EXTT4=
EXTT5=
EXTT6=
EXTT7=
EXTT8=
EXTT9=
PLAYORDER=
